<svg id="visual" viewBox="0 0 900 600" width="900" height="600" xmlns="http://www.w3.org/2000/svg" xmlns:xlink="http://www.w3.org/1999/xlink" version="1.1"><path d="M0 433L21.5 425.2C43 417.3 86 401.7 128.8 413.2C171.7 424.7 214.3 463.3 257.2 472.7C300 482 343 462 385.8 442.3C428.7 422.7 471.3 403.3 514.2 404.3C557 405.3 600 426.7 642.8 444.3C685.7 462 728.3 476 771.2 477.8C814 479.7 857 469.3 878.5 464.2L900 459L900 601L878.5 601C857 601 814 601 771.2 601C728.3 601 685.7 601 642.8 601C600 601 557 601 514.2 601C471.3 601 428.7 601 385.8 601C343 601 300 601 257.2 601C214.3 601 171.7 601 128.8 601C86 601 43 601 21.5 601L0 601Z" fill="#3e5518" stroke-linecap="round" stroke-linejoin="miter"></path></svg>